# xmcd
#
# Track frame offsets:
#	150
#	15602
#	32500
#	50263
#	71750
#	87824
#	103367
#	121380
#	141527
#	154489
#	172054
#	189789
#	209204
#	228497
#	244097
#	260856
#
# Disc length: 3681 seconds
#
# Revision: 0
# Processed by: cddbd v1.5.2PL0 Copyright (c) Steve Scherf et al.
# Submitted via: SynApp - FreeCDDB Version: 2.5
#
DISCID=f10e5f10
DTITLE=Ein Stern - Ein Stern
DYEAR=22
DGENRE=3
TTITLE0=DJ Oetzi und Nik P - Ein Stern
TTITLE1=Nelly Furtado - Say It Right
TTITLE2=Ville Valo and Natalia Avelon - Summer Wine
TTITLE3=Justin Timberlake - What Goes Around Comes Around
TTITLE4=Sunrise Avenue - Fairytale Gone Bad
TTITLE5=Kaiser Chiefs - Ruby
TTITLE6=Incubus - Love Hurts
TTITLE7=Maria Mena - Just Hold Me
TTITLE8=DJ BoBo - Vampires Are Alive
TTITLE9=Rosenstolz - Aus Liebe Wollt Ich Alles Wiss
TTITLE10=Claudia Jung und Nik P - Sommerwein Wie Die Liebe Suess
TTITLE11=Erasure - I Could Fall In Love With You
TTITLE12=P Diddy ft Keyshia Cole - Last Night
TTITLE13=Eric Prydz vs Floyd - Proper Education
TTITLE14=Rob Thomas - Little Wonders
TTITLE15=Gurkentruppe und Jan Niklas - Wer Hat Am Letzten Spieltag Ni
EXTD=
EXTT0=
EXTT1=
EXTT2=
EXTT3=
EXTT4=
EXTT5=
EXTT6=
EXTT7=
EXTT8=
EXTT9=
EXTT10=
EXTT11=
EXTT12=
EXTT13=
EXTT14=
EXTT15=
PLAYORDER=
